<svg xmlns="http://www.w3.org/2000/svg" xmlns:xlink="http://www.w3.org/1999/xlink" width="50" height="50" viewBox="0 0 50 50">
  <defs>
    <clipPath id="clip-categoryorange">
      <rect width="50" height="50"/>
    </clipPath>
  </defs>
  <g id="categoryorange" clip-path="url(#clip-categoryorange)">
    <g id="categories" transform="translate(4 7)">
      <path id="Path_12844" data-name="Path 12844" d="M9.543,7.564l.689,1.363.843,1.7h6.5v7.66H5.314V7.564H9.543M10.493,4.5H3.782A1.532,1.532,0,0,0,2.25,6.032V19.821a1.532,1.532,0,0,0,1.532,1.532H19.1a1.532,1.532,0,0,0,1.532-1.532V9.1A1.532,1.532,0,0,0,19.1,7.564H12.975l-1.1-2.221A1.532,1.532,0,0,0,10.493,4.5Z" transform="translate(-2.25 -4.5)" fill="#ff5700"/>
      <path id="Path_12845" data-name="Path 12845" d="M27.543,7.564l.689,1.363.843,1.7h6.5v7.66H23.314V7.564h4.229M28.493,4.5H21.782A1.532,1.532,0,0,0,20.25,6.032V19.821a1.532,1.532,0,0,0,1.532,1.532H37.1a1.532,1.532,0,0,0,1.532-1.532V9.1A1.532,1.532,0,0,0,37.1,7.564H30.975l-1.1-2.221A1.532,1.532,0,0,0,28.493,4.5Z" transform="translate(4.263 -4.5)" fill="#ff5700"/>
      <path id="Path_12846" data-name="Path 12846" d="M9.543,22.189l.689,1.363.843,1.7h6.5v7.66H5.314V22.189H9.543m.951-3.064H3.782A1.532,1.532,0,0,0,2.25,20.657V34.446a1.532,1.532,0,0,0,1.532,1.532H19.1a1.532,1.532,0,0,0,1.532-1.532V23.721A1.532,1.532,0,0,0,19.1,22.189H12.975l-1.1-2.221a1.532,1.532,0,0,0-1.378-.843Z" transform="translate(-2.25 0.792)" fill="#ff5700"/>
      <path id="Path_12847" data-name="Path 12847" d="M27.543,22.189l.689,1.363.843,1.7h6.5v7.66H23.314V22.189h4.229m.951-3.064H21.782a1.532,1.532,0,0,0-1.532,1.532V34.446a1.532,1.532,0,0,0,1.532,1.532H37.1a1.532,1.532,0,0,0,1.532-1.532V23.721A1.532,1.532,0,0,0,37.1,22.189H30.975l-1.1-2.221A1.532,1.532,0,0,0,28.493,19.125Z" transform="translate(4.263 0.792)" fill="#ff5700"/>
    </g>
  </g>
</svg>
