<svg xmlns="http://www.w3.org/2000/svg" xmlns:xlink="http://www.w3.org/1999/xlink" width="50" height="50" viewBox="0 0 50 50">
  <defs>
    <clipPath id="clip-path">
      <rect id="Rectangle_6101" data-name="Rectangle 6101" width="45.177" height="45.202" fill="#ff5700"/>
    </clipPath>
    <clipPath id="clip-companyorange">
      <rect width="50" height="50"/>
    </clipPath>
  </defs>
  <g id="companyorange" clip-path="url(#clip-companyorange)">
    <g id="Group_23816" data-name="Group 23816" transform="translate(1.999 2)">
      <g id="Group_23815" data-name="Group 23815" transform="translate(0 0)" clip-path="url(#clip-path)">
        <path id="Path_12834" data-name="Path 12834" d="M5.05,43.139v-.884l.006-28.429c0-1.347.244-1.59,1.6-1.592q6.3-.006,12.6-.006h.791V7.86q0-3.2,0-6.4c0-1.142.311-1.451,1.453-1.451Q29.99,0,38.487,0c1.385,0,1.641.263,1.641,1.637V43.174h3.357a7.192,7.192,0,0,1,.791.014.99.99,0,0,1,.2,1.933,2.263,2.263,0,0,1-.708.077q-21.165,0-42.331,0a2.881,2.881,0,0,1-.5-.017A1.014,1.014,0,0,1,0,44.164a.979.979,0,0,1,1.025-.981c1.08-.023,2.159-.008,3.239-.012.234,0,.468-.019.786-.033m17.061-.012h3.32V42.3q0-4.281,0-8.565c0-1.118.281-1.409,1.407-1.412,2.136-.01,4.272-.006,6.408,0,1.219,0,1.488.275,1.488,1.476q0,4.284,0,8.567c0,.255.021.511.033.758h3.285V2.068H22.111ZM7.116,43.121H20V14.284H7.116Zm25.549-8.712H27.509v8.728h5.156Z" transform="translate(0 0.002)" fill="#ff5700"/>
        <path id="Path_12835" data-name="Path 12835" d="M18.276,9.656c1.439,0,2.877,0,4.315,0,.952,0,1.287.342,1.29,1.3.006.909.008,1.821,0,2.732-.008.934-.368,1.3-1.314,1.3q-4.278.009-8.556,0c-1.023,0-1.364-.36-1.368-1.4q-.006-1.291,0-2.587c0-1.012.325-1.347,1.32-1.35,1.438-.008,2.875,0,4.313,0m3.568,2.078H14.711v1.18h7.133Z" transform="translate(11.817 9.025)" fill="#ff5700"/>
        <path id="Path_12836" data-name="Path 12836" d="M18.266,11.22c-1.436,0-2.873,0-4.311,0-.987-.006-1.3-.311-1.306-1.275s-.014-1.915,0-2.873A1.025,1.025,0,0,1,13.8,5.909q4.455-.026,8.91,0a1.02,1.02,0,0,1,1.159,1.151c.017,1.006.015,2.012,0,3.018-.01.782-.356,1.13-1.151,1.138-1.486.015-2.97,0-4.456.006M14.69,9.156h7.124V7.977H14.69Z" transform="translate(11.818 5.513)" fill="#ff5700"/>
        <path id="Path_12837" data-name="Path 12837" d="M18.268,7.489c-1.463,0-2.923.006-4.386,0-.853-.006-1.219-.368-1.232-1.227q-.02-1.471,0-2.947a1.021,1.021,0,0,1,1.157-1.149q4.455-.017,8.912,0a1.026,1.026,0,0,1,1.159,1.149q.017,1.437,0,2.875c-.008.952-.358,1.3-1.3,1.3-1.438,0-2.875,0-4.313,0m-3.583-2.07h7.147V4.23H14.685Z" transform="translate(11.816 2.014)" fill="#ff5700"/>
        <path id="Path_12838" data-name="Path 12838" d="M9.4,12.167c1.174,0,2.347-.01,3.521,0,1.041.01,1.335.3,1.347,1.32.012.958.014,1.915,0,2.873-.014.758-.341,1.124-1.089,1.13q-3.773.032-7.544.006c-.78,0-1.128-.377-1.147-1.169-.021-.958-.019-1.915,0-2.873.015-.936.329-1.263,1.254-1.279,1.223-.021,2.444-.006,3.664-.006v0M6.535,15.431H12.21V14.256H6.535Z" transform="translate(4.179 11.37)" fill="#ff5700"/>
        <path id="Path_12839" data-name="Path 12839" d="M9.363,13.812c-1.2,0-2.4.01-3.593,0-.917-.01-1.267-.344-1.287-1.256q-.029-1.474,0-2.947c.019-.77.4-1.122,1.184-1.124q3.738-.012,7.476,0a.985.985,0,0,1,1.12,1.1c.017,1.029.021,2.061,0,3.09-.017.78-.373,1.126-1.167,1.138-1.246.017-2.492,0-3.738,0M6.537,11.755H12.2V10.544H6.537Z" transform="translate(4.178 7.926)" fill="#ff5700"/>
        <path id="Path_12840" data-name="Path 12840" d="M9.4,15.85c1.174,0,2.349-.006,3.523,0,1.018.006,1.349.327,1.358,1.316.008.933.012,1.867,0,2.8-.014.84-.354,1.205-1.165,1.209q-3.738.015-7.476,0a1.025,1.025,0,0,1-1.155-1.157C4.462,19.01,4.46,18,4.485,17a1.033,1.033,0,0,1,1.178-1.14c1.246-.017,2.492,0,3.738,0v0m2.831,2.062H6.567v1.2h5.665Z" transform="translate(4.175 14.815)" fill="#ff5700"/>
      </g>
    </g>
  </g>
</svg>
