<svg xmlns="http://www.w3.org/2000/svg" xmlns:xlink="http://www.w3.org/1999/xlink" width="50" height="50" viewBox="0 0 50 50">
  <defs>
    <clipPath id="clip-path">
      <rect id="Rectangle_6104" data-name="Rectangle 6104" width="42.92" height="41.383" fill="#ff5700" stroke="#ff571c" stroke-width="0.2"/>
    </clipPath>
    <clipPath id="clip-coursetypeorange">
      <rect width="50" height="50"/>
    </clipPath>
  </defs>
  <g id="coursetypeorange" clip-path="url(#clip-coursetypeorange)">
    <g id="Group_23819" data-name="Group 23819" transform="translate(4.001 4)">
      <g id="Group_23818" data-name="Group 23818" transform="translate(0 0)" clip-path="url(#clip-path)">
        <path id="Path_12841" data-name="Path 12841" d="M25.779,32.828a5.984,5.984,0,0,0,.62,2.61,2.993,2.993,0,0,0,2.755,1.652c.608,0,1.218-.018,1.821.033a2.133,2.133,0,0,1-.175,4.255c-.81.012-1.62,0-2.431,0l-16.135,0a2.135,2.135,0,0,1-.289-4.258c.66-.051,1.327-.006,1.988-.042a3,3,0,0,0,2.693-1.822,6.707,6.707,0,0,0,.523-2.445h-.237c-4.652,0-9.3-.012-13.956.01a2.9,2.9,0,0,1-2.89-2.3A3.589,3.589,0,0,1,0,29.861Q0,16.349,0,2.835A2.86,2.86,0,0,1,2.831.009C3.2,0,3.571,0,3.942,0q17.9,0,35.791,0a3.313,3.313,0,0,1,1.716.371,2.886,2.886,0,0,1,1.469,2.6c0,.056,0,.111,0,.168q0,13.294,0,26.588a3.013,3.013,0,0,1-.647,2.045,2.9,2.9,0,0,1-2.339,1.05q-5.25-.014-10.5-.009c-1.139,0-2.277,0-3.416.006-.075,0-.15.007-.241.011M38.626,4.3c-.11-.006-.193-.014-.276-.014q-16.921,0-33.843-.006c-.18,0-.221.059-.221.228q.006,8.183,0,16.367,0,2.236,0,4.474c0,.306,0,.306.292.306l24.56,0q4.621,0,9.241,0c.161,0,.252-.012.252-.221Q38.624,15,38.626,4.561V4.3M1.443,27.126c-.008.063-.015.1-.015.13,0,.892-.012,1.784,0,2.675a1.421,1.421,0,0,0,1.51,1.463l37.05,0a1.418,1.418,0,0,0,1.5-1.451c.016-.884,0-1.769.008-2.654,0-.138-.043-.177-.18-.177q-6.464.007-12.929.007l-26.446,0h-.5M2.85,25.674V3.824c0-.077,0-.154,0-.23A.721.721,0,0,1,3.5,2.867a2.153,2.153,0,0,1,.334-.019H39.1a2.035,2.035,0,0,1,.334.02.715.715,0,0,1,.633.7c.006.083,0,.167,0,.251v21.86c.438,0,.843-.009,1.247.006.155,0,.187-.038.187-.183q0-11.2,0-22.406a2.761,2.761,0,0,0-.028-.52,1.446,1.446,0,0,0-1.546-1.156H3.864c-.321,0-.642,0-.964.008A1.417,1.417,0,0,0,1.419,2.939c0,.286,0,.571,0,.857q0,10.827.007,21.653v.224ZM17.14,37.068h8.695c-.039-.053-.064-.083-.084-.115a12.75,12.75,0,0,1-.691-1.113,7.855,7.855,0,0,1-.694-2.819c-.015-.173-.078-.2-.23-.2q-2.68.006-5.361,0c-.148,0-.2.034-.214.192a8.053,8.053,0,0,1-.882,3.215c-.159.288-.354.557-.538.841m4.321,1.467v.006H13.918c-.614,0-1.229-.01-1.843,0a.665.665,0,0,0-.642.648.672.672,0,0,0,.57.732,3.675,3.675,0,0,0,.563.036q8.883,0,17.766,0c.16,0,.322,0,.481-.009a.708.708,0,0,0-.03-1.414c-.1,0-.209,0-.314,0H21.46" transform="translate(0 0)" fill="#ff5700" stroke="#ff571c" stroke-width="0.2"/>
        <path id="Path_12842" data-name="Path 12842" d="M33.962,20.055l-.545.852c-.083.129-.16.26-.251.384a.681.681,0,0,1-.983.225.673.673,0,0,1-.192-.986c.27-.43.539-.865.85-1.266a2.121,2.121,0,0,0,.445-1.449c-.038-1.357-.019-2.717-.023-4.075,0-.068,0-.137,0-.238-.157.071-.288.13-.419.19-.518.241-1.035.486-1.556.721a.254.254,0,0,0-.176.267c.006,1.532-.008,3.065.011,4.6a.942.942,0,0,1-.578.961q-4.094,2.026-8.176,4.076a1.068,1.068,0,0,1-1.047.008c-2.267-1.139-4.544-2.258-6.814-3.387-.5-.249-.99-.514-1.49-.761a.81.81,0,0,1-.491-.782c0-.286,0-.571,0-.857,0-1.3,0-2.592,0-3.887a.224.224,0,0,0-.156-.235q-1.43-.668-2.857-1.341c-.051-.024-.1-.048-.15-.074a.682.682,0,0,1-.008-1.247c.485-.245.974-.483,1.465-.714q5.214-2.451,10.423-4.9a1.214,1.214,0,0,1,1.132-.007q5.5,2.6,11.009,5.18c.284.133.567.267.85.4a.758.758,0,0,1,.458.752q-.016,2.968-.011,5.936a.858.858,0,0,0,.15.421c.37.573.759,1.135,1.131,1.708a.648.648,0,0,1-.022.847.669.669,0,0,1-1.094-.031c-.256-.356-.489-.729-.734-1.093-.04-.06-.089-.113-.154-.193m-3.214-6.933c0-.012-.007-.025-.01-.037H22.523c0,.22,0,.427,0,.634a.726.726,0,0,1-.389.71.71.71,0,0,1-1.021-.722c0-.905,0-1.81.02-2.715a.915.915,0,0,1,.133-.448A.637.637,0,0,1,22,10.272a.706.706,0,0,1,.52.683c.012.227,0,.454,0,.7h8.159a.616.616,0,0,0-.228-.168c-.272-.127-.547-.247-.817-.374q-3.81-1.8-7.617-3.6a.394.394,0,0,0-.372,0q-4.935,2.323-9.874,4.637c-.147.069-.291.142-.458.224.826.377,1.621.732,2.411,1.1,2.51,1.177,5.022,2.35,7.521,3.549a1.17,1.17,0,0,0,1.14,0c2.291-1.1,4.6-2.172,6.9-3.25.483-.227.974-.437,1.463-.655m-1.06,2.051c-.276.132-.516.252-.76.367q-1.608.756-3.218,1.509-1.486.694-2.977,1.379a.337.337,0,0,0-.227.352c.015.467.019.933.016,1.4a.685.685,0,0,1-.87.713.71.71,0,0,1-.532-.756c-.006-.293.011-.585.011-.877,0-.726-.007-.713-.669-1.021q-3.155-1.469-6.3-2.955c-.065-.031-.132-.057-.222-.1v.246c0,1.143,0,2.286,0,3.428a.3.3,0,0,0,.2.316q3.682,1.817,7.358,3.653a.626.626,0,0,0,.647,0q3.685-1.86,7.386-3.689a.27.27,0,0,0,.175-.286c0-1.164,0-2.327,0-3.491,0-.049,0-.1-.009-.2" transform="translate(-0.358 -0.24)" fill="#ff5700" stroke="#ff571c" stroke-width="0.2"/>
        <path id="Path_12843" data-name="Path 12843" d="M22.243,29.741c.677,0,1.354,0,2.03,0a1.072,1.072,0,0,1,.287.038.714.714,0,0,1,.524.7.731.731,0,0,1-.588.647,1.559,1.559,0,0,1-.29.033q-2,0-4,0a.74.74,0,0,1-.744-.4.7.7,0,0,1,.686-1.016c.7-.008,1.395,0,2.093,0" transform="translate(-0.776 -1.19)" fill="#ff5700" stroke="#ff571c" stroke-width="0.2"/>
      </g>
    </g>
  </g>
</svg>
