<svg xmlns="http://www.w3.org/2000/svg" xmlns:xlink="http://www.w3.org/1999/xlink" width="50" height="50" viewBox="0 0 50 50">
  <defs>
    <clipPath id="clip-location">
      <rect width="50" height="50"/>
    </clipPath>
  </defs>
  <g id="location" clip-path="url(#clip-location)">
    <g id="location-2" data-name="location" transform="translate(8.999 4)">
      <path id="Path_12864" data-name="Path 12864" d="M19.794,23.838a7.419,7.419,0,1,1,7.419-7.419,7.419,7.419,0,0,1-7.419,7.419Zm0-11.87a4.451,4.451,0,1,0,4.451,4.451,4.451,4.451,0,0,0-4.451-4.451Z" transform="translate(-3.472 -0.097)"/>
      <path id="Path_12865" data-name="Path 12865" d="M21.946,43.8,9.429,29.033q-.261-.332-.516-.669a16.156,16.156,0,0,1-3.288-9.793,16.321,16.321,0,0,1,32.643,0,16.15,16.15,0,0,1-3.287,9.789v0s-.444.584-.512.663ZM11.28,26.576s.347.456.426.555l10.24,12.077L32.2,27.115c.065-.082.413-.542.414-.543a13.207,13.207,0,0,0,2.687-8,13.354,13.354,0,1,0-26.708,0,13.213,13.213,0,0,0,2.691,8Z" transform="translate(-5.625 -2.25)"/>
    </g>
  </g>
</svg>
