<svg xmlns="http://www.w3.org/2000/svg" xmlns:xlink="http://www.w3.org/1999/xlink" width="50" height="50" viewBox="0 0 50 50">
  <defs>
    <clipPath id="clip-path">
      <rect id="Rectangle_6111" data-name="Rectangle 6111" width="41.024" height="40.518" fill="none" stroke="#000" stroke-width="0.3"/>
    </clipPath>
    <clipPath id="clip-skills">
      <rect width="50" height="50"/>
    </clipPath>
  </defs>
  <g id="skills" clip-path="url(#clip-skills)">
    <g id="Group_23823" data-name="Group 23823" transform="translate(4 5)">
      <g id="Group_23822" data-name="Group 23822" transform="translate(0 0)">
        <g id="Group_23821" data-name="Group 23821" transform="translate(0 0)" clip-path="url(#clip-path)">
          <path id="Path_12848" data-name="Path 12848" d="M4.342,15.868H1.317c-.941,0-1.31-.374-1.31-1.316C0,13.439,0,12.326,0,11.214c0-.95.367-1.31,1.315-1.31.907,0,1.815-.007,2.722.008a.361.361,0,0,0,.417-.3,2.131,2.131,0,0,1,.252-.594c.215-.315.124-.512-.138-.75C4,7.754,3.462,7.21,2.931,6.656a2.094,2.094,0,0,1-.467-.686.89.89,0,0,1,.254-.977c.888-.884,1.767-1.777,2.659-2.656A1.037,1.037,0,0,1,7.02,2.35c.634.634,1.268,1.269,1.889,1.915a.44.44,0,0,0,.564.13c.655-.275.664-.265.661-.985s-.018-1.425-.024-2.138C10.1.4,10.439.049,11.309.033Q13.008,0,14.71,0a1.242,1.242,0,0,1,1.4,1.4c0,.8-.029,1.6-.06,2.4-.01.24.054.388.3.457a1.522,1.522,0,0,1,.473.2c.278.2.442.086.647-.128.643-.67,1.3-1.322,1.965-1.975a1.034,1.034,0,0,1,1.642.006q1.232,1.22,2.458,2.446a1.119,1.119,0,0,1-.013,1.859c-.659.653-1.331,1.3-1.982,1.958A.454.454,0,0,0,21.444,9c.292.9.3.9,1.26.9.756,0,1.513,0,2.269,0a1.077,1.077,0,0,1,1.194,1.207q0,1.765,0,3.531a1.08,1.08,0,0,1-1.239,1.223c-.95,0-1.9,0-2.851,0a.336.336,0,0,0-.38.25c-.279.744-.284.738.3,1.31.529.523,1.057,1.052,1.575,1.585a1.028,1.028,0,0,1,0,1.681q-1.254,1.266-2.523,2.517a.993.993,0,0,1-1.184.345,1.632,1.632,0,0,1-.439-.323q-.959-.943-1.9-1.9c-.173-.179-.315-.246-.554-.1-.272.163-.689.2-.831.429s-.023.624-.031.944c-.016.7-.033,1.4-.063,2.1a.927.927,0,0,1-.848.949c-.6.06-1.207.048-1.81.055-.67.007-1.34.006-2.009,0a1.112,1.112,0,0,1-1.269-1.248c-.011-.831,0-1.662.018-2.493,0-.241-.052-.385-.29-.464a2.67,2.67,0,0,1-.589-.264c-.254-.161-.415-.087-.606.112-.591.615-1.2,1.215-1.8,1.817a1.027,1.027,0,0,1-1.72-.014L2.677,20.694a1.067,1.067,0,0,1-.007-1.737c.633-.636,1.266-1.27,1.909-1.895a.3.3,0,0,0,.08-.417c-.123-.238-.206-.5-.317-.776m19.783-3.889h-.383c-.843,0-1.685.007-2.528,0a1.127,1.127,0,0,1-1.14-.786c-.268-.7-.54-1.4-.849-2.09a.985.985,0,0,1,.144-1.166c.267-.3.554-.575.831-.863.43-.448.859-.9,1.272-1.33l-1.25-1.288c-.1.087-.2.157-.278.24-.622.615-1.237,1.238-1.865,1.846a1.023,1.023,0,0,1-1.352.162,18.932,18.932,0,0,0-1.9-.8,1.063,1.063,0,0,1-.819-1c-.01-.173-.018-.346-.018-.518,0-.743,0-1.485,0-2.3-.535,0-1.028.008-1.52,0-.24-.006-.316.078-.312.321.014.81.006,1.619,0,2.429a1.044,1.044,0,0,1-.81,1.067c-.589.2-1.177.416-1.743.673A1.119,1.119,0,0,1,8,6.285c-.6-.613-1.217-1.219-1.841-1.844l-1.33,1.37c.645.612,1.306,1.217,1.941,1.848a1.012,1.012,0,0,1,.187,1.424c-.315.646-.6,1.312-.848,1.985a1.185,1.185,0,0,1-1.245.912c-.832,0-1.663.01-2.495-.008-.278-.006-.352.085-.337.351a8.976,8.976,0,0,1-.006,1.133c-.019.279.081.347.347.342.842-.016,1.684-.012,2.527,0a1.1,1.1,0,0,1,1.21.9c.236.657.5,1.306.8,1.939a.952.952,0,0,1-.131,1.08,3.542,3.542,0,0,1-.309.333c-.6.589-1.194,1.177-1.809,1.783l1.394,1.319a2.515,2.515,0,0,1,.175-.216c.57-.577,1.126-1.166,1.717-1.718a1.043,1.043,0,0,1,1.412-.169,18.054,18.054,0,0,0,1.842.773,1.142,1.142,0,0,1,.953,1.3c0,.745.007,1.489,0,2.235,0,.2.044.289.271.278.442-.021.886-.019,1.328-.011.187,0,.275-.041.272-.249-.013-.766,0-1.532-.023-2.3a1.089,1.089,0,0,1,.85-1.229,20.91,20.91,0,0,0,2-.884,1.035,1.035,0,0,1,1.374.188c.676.664,1.357,1.324,2.056,2,.337-.342.692-.72,1.067-1.076.182-.172.162-.279-.006-.442q-.93-.9-1.838-1.828a1.025,1.025,0,0,1-.217-1.322c.274-.583.526-1.179.746-1.784a1.135,1.135,0,0,1,1.243-.9c.831,0,1.663,0,2.495,0,.113,0,.227-.011.351-.018Z" transform="translate(0 0)" stroke="#000" stroke-width="0.3"/>
          <path id="Path_12849" data-name="Path 12849" d="M10.692,38.242H23.737c0-1.031,0-2.032,0-3.034,0-.841-.021-1.681-.014-2.522a1.631,1.631,0,0,1,.124-.6.951.951,0,0,1,1.454-.433,10.049,10.049,0,0,0,5.1,1.774c.866.114,1.739.18,2.607.278.274.031.337-.057.336-.336-.013-2.969-.011-5.94-.011-8.909,0-.454-.012-.907.006-1.361a1.019,1.019,0,0,1,.9-1.132c.981-.253,1.969-.479,2.954-.718.081-.019.159-.051.26-.085-.283-.522-.55-1.024-.824-1.523q-1.443-2.62-2.892-5.241a2.621,2.621,0,0,1-.346-1.229,10.8,10.8,0,0,0-5.112-9.094,19.459,19.459,0,0,0-2.109-1.121,1.1,1.1,0,0,1-.731-1.043A1.013,1.013,0,0,1,26.9,1.063a19.457,19.457,0,0,1,2.3,1.247,12.91,12.91,0,0,1,5.879,8.123,16.419,16.419,0,0,1,.3,2.176,3.189,3.189,0,0,0,.382,1.316c1.327,2.359,2.615,4.741,3.959,7.091.636,1.111.145,1.71-.868,1.929-1.042.225-2.071.516-3.115.738-.334.07-.407.212-.4.52.016,1.393.01,2.786.014,4.18q.011,3.077.024,6.155a1.124,1.124,0,0,1-1.3,1.279,24.225,24.225,0,0,1-7.937-1.358c-.091-.035-.184-.062-.277-.089a.42.42,0,0,0-.1,0c0,.346,0,.694,0,1.043q.014,1.8.031,3.594c.008.923-.361,1.314-1.277,1.316q-3.661.007-7.323,0-3.6,0-7.194,0c-1.016,0-1.381-.359-1.381-1.382,0-1.663.031-3.327-.01-4.989a4.98,4.98,0,0,0-1.762-3.818A7.949,7.949,0,0,0,5.8,29.5a1.03,1.03,0,0,1-.518-1,.942.942,0,0,1,.781-.844,1.414,1.414,0,0,1,.77.131,6.1,6.1,0,0,1,2.838,2.651,7.82,7.82,0,0,1,1.021,3.931c-.013,1.188,0,2.375,0,3.563v.316" transform="translate(1.015 0.184)" stroke="#000" stroke-width="0.3"/>
          <path id="Path_12850" data-name="Path 12850" d="M11.583,7.351A4.064,4.064,0,0,1,15.718,11.4a4.107,4.107,0,0,1-3.971,4.159,4.185,4.185,0,0,1-4.238-4.021,4.113,4.113,0,0,1,4.073-4.191M11.6,13.49a1.966,1.966,0,0,0,2.065-2.01,2.074,2.074,0,0,0-2.015-2.07,2.053,2.053,0,0,0-2.074,2.074A2,2,0,0,0,11.6,13.49" transform="translate(1.445 1.415)" stroke="#000" stroke-width="0.3"/>
        </g>
      </g>
    </g>
  </g>
</svg>
