<svg xmlns="http://www.w3.org/2000/svg" xmlns:xlink="http://www.w3.org/1999/xlink" width="50" height="50" viewBox="0 0 50 50">
  <defs>
    <clipPath id="clip-path">
      <rect id="Rectangle_6124" data-name="Rectangle 6124" width="45.039" height="42.321" fill="none" stroke="#000" stroke-width="0.3"/>
    </clipPath>
    <clipPath id="clip-trainer_">
      <rect width="50" height="50"/>
    </clipPath>
  </defs>
  <g id="trainer_" data-name="trainer " clip-path="url(#clip-trainer_)">
    <g id="Group_23827" data-name="Group 23827" transform="translate(2 4)">
      <g id="Group_23826" data-name="Group 23826" transform="translate(0 0)" clip-path="url(#clip-path)">
        <path id="Path_12868" data-name="Path 12868" d="M24.966,22.065c-.618.554-1.226,1.106-1.837,1.652Q21.693,25,20.255,26.277c-.065.059-.132.117-.2.171a.613.613,0,0,1-.886-.061.58.58,0,0,1,.031-.849c.486-.467.988-.918,1.488-1.37q1.324-1.193,2.651-2.379c.085-.077.175-.147.3-.254-.131-.013-.22-.031-.309-.031q-3.747,0-7.5,0a2.963,2.963,0,0,1-1.58-.372,2.512,2.512,0,0,1-1.242-1.823,3.983,3.983,0,0,1-.048-.679q0-6.284,0-12.567V5.772h-.838a.7.7,0,0,1-.791-.782q0-2.08,0-4.159c0-.525.224-.746.755-.752.7-.006,1.407,0,2.112,0h23.7c.572.013.786.221.791.789s0,1.159,0,1.739c0,.786,0,1.571,0,2.355a.725.725,0,0,1-.816.811h-.921c-.006.076-.015.138-.015.2q.009,6.108.015,12.215a6.932,6.932,0,0,1-.068,1.293,2.419,2.419,0,0,1-2.309,2c-1.162.056-2.33.021-3.5.019q-2.265,0-4.529-.006c-.068,0-.135.006-.256.012l.51.45,3.815,3.419c.055.049.107.1.158.155a.621.621,0,0,1,.031.856.593.593,0,0,1-.862.068c-.691-.591-1.373-1.192-2.054-1.8-.936-.834-1.868-1.673-2.8-2.508a1.191,1.191,0,0,0-.128-.085M35.658,5.772H14.513c-.037,0-.074,0-.11,0-.114-.012-.159.04-.155.153.007.16.012.322.012.484q0,6.074.006,12.15a3.811,3.811,0,0,0,.018.505,1.168,1.168,0,0,0,.759,1.021,2.244,2.244,0,0,0,.77.12c6.179.009,12.359,0,18.538.019a1.3,1.3,0,0,0,1.309-1.317q-.009-6.44,0-12.877ZM12.627,4.507H37.4V1.384H12.627Z" transform="translate(5.509 0.037)" stroke="#000" stroke-width="0.3"/>
        <path id="Path_12869" data-name="Path 12869" d="M8.078,8.053c.712-.669,1.419-1.318,2.1-1.99a1.149,1.149,0,0,1,.924-.357c.6.033,1.207-.018,1.8.059A3.706,3.706,0,0,1,16.11,9.478q-.013,4.732-.01,9.465a2.249,2.249,0,0,1-3.049,2.189c-.116-.04-.232-.083-.383-.138,0,.33.007.633,0,.938q-.076,2.717-.159,5.433-.078,2.695-.153,5.39c-.022.74,0,1.485-.086,2.219a2.261,2.261,0,0,1-1.575,1.965,2.361,2.361,0,0,1-2.459-.48c-.051-.042-.1-.086-.1-.088a8.317,8.317,0,0,1-1.19.6,2.359,2.359,0,0,1-3.07-2.174c-.065-1.3-.094-2.611-.135-3.916Q3.63,27.49,3.525,24.1c-.03-.967-.043-1.936-.062-2.9,0-.056-.006-.114-.01-.2-.111.037-.205.065-.3.1A2.29,2.29,0,0,1,.03,19.124c-.013-.2-.028-.41-.028-.615q0-4.545,0-9.09a3.778,3.778,0,0,1,3.645-3.7c.542-.009,1.085.006,1.627-.009a.918.918,0,0,1,.718.308C6.677,6.7,7.374,7.37,8.078,8.053M1.272,14.13h.034v.529c0,1.452,0,2.905.012,4.357a.911.911,0,0,0,.783.923,1.011,1.011,0,0,0,1.177-.688,1.914,1.914,0,0,0,.061-.522q.007-2.74,0-5.479c0-.14-.007-.279,0-.418a.665.665,0,0,1,.626-.626.618.618,0,0,1,.618.591,3.057,3.057,0,0,1,.009.33q.011,2.135.018,4.269c0,.128.031.181.171.181q3.243-.011,6.487-.007c.21,0,.253-.062.251-.26-.012-1.424-.01-2.846-.013-4.269a2.279,2.279,0,0,1,.013-.285.625.625,0,0,1,.591-.551.634.634,0,0,1,.639.5,2.263,2.263,0,0,1,.037.437c0,1.079,0,2.156,0,3.235,0,.887-.006,1.776.01,2.663a.983.983,0,0,0,1.009.978.993.993,0,0,0,1.012-1c0-.147,0-.294,0-.44.009-3.008.012-6.016.031-9.023a2.455,2.455,0,0,0-2.049-2.508A8.983,8.983,0,0,0,11.3,7a.633.633,0,0,0-.383.156c-.77.7-1.528,1.416-2.291,2.124-.431.4-.7.4-1.116-.006-.737-.715-1.464-1.44-2.2-2.15a.526.526,0,0,0-.321-.132c-.455-.012-.909-.012-1.363,0A2.494,2.494,0,0,0,1.269,9.465c.012,1.556,0,3.11,0,4.665m10.2,4.754c-.108-.006-.189-.013-.267-.013q-3.154,0-6.31-.006c-.184,0-.238.052-.227.238.034.666.058,1.333.077,2,.065,2.376.123,4.751.19,7.126q.078,2.815.168,5.631c.009.285.013.572.043.857a1.118,1.118,0,0,0,.727.99,1.139,1.139,0,0,0,1.165-.143,1.259,1.259,0,0,0,.431-1.1q0-6.284,0-12.566c0-.272-.006-.544.007-.814a.617.617,0,0,1,.635-.6.624.624,0,0,1,.63.584c.012.146,0,.293,0,.44q0,6.217,0,12.434c0,.256-.006.513.012.77a1.141,1.141,0,1,0,2.277-.144c.034-1.107.059-2.214.091-3.321q.085-3.014.175-6.026t.175-6.048c0-.086,0-.172,0-.287" transform="translate(0 2.773)" stroke="#000" stroke-width="0.3"/>
        <path id="Path_12870" data-name="Path 12870" d="M21.5,30.919H17.413c-.1,0-.205,0-.306-.01a.581.581,0,0,1-.572-.533,1.47,1.47,0,0,1-.012-.2c0-1.334-.012-2.669,0-4a2.669,2.669,0,0,1,1.936-2.59,4.115,4.115,0,0,1,.6-.114.782.782,0,0,1,.752.309,2.163,2.163,0,0,0,3.355.025.866.866,0,0,1,.9-.321A2.751,2.751,0,0,1,26.537,26.4q0,1.848,0,3.7c0,.6-.21.819-.82.82q-2.109,0-4.219,0Zm3.73-1.3c.006-.113.015-.207.013-.3,0-.58-.012-1.158-.016-1.737,0-.528.024-1.057-.012-1.583a1.352,1.352,0,0,0-.688-1.091c-.385-.233-.386-.23-.731.056l-.119.1a3.381,3.381,0,0,1-3.052.682,3.283,3.283,0,0,1-1.514-.893.282.282,0,0,0-.369-.059,1.44,1.44,0,0,0-.912,1.4q0,1.638,0,3.278a1.387,1.387,0,0,0,.018.149Z" transform="translate(8.028 11.402)" stroke="#000" stroke-width="0.3"/>
        <path id="Path_12871" data-name="Path 12871" d="M14.433,30.917H10.345a2.758,2.758,0,0,1-.351-.016.6.6,0,0,1-.559-.553,2.78,2.78,0,0,1-.015-.352c0-1.21,0-2.419-.007-3.629a2.726,2.726,0,0,1,2.425-2.884.89.89,0,0,1,.918.317,2.089,2.089,0,0,0,2.043.755,1.891,1.891,0,0,0,1.22-.685,1,1,0,0,1,1.067-.374,2.645,2.645,0,0,1,2.19,1.855,3.008,3.008,0,0,1,.144.927c.018,1.3.01,2.6.01,3.895,0,.52-.227.743-.756.745-.712,0-1.422,0-2.132,0s-1.407,0-2.11,0ZM10.7,29.609h7.418V29.42c0-1.1.01-2.2,0-3.3a1.384,1.384,0,0,0-.758-1.251c-.327-.183-.33-.178-.617.062-.051.043-.1.086-.152.128a3.367,3.367,0,0,1-3.177.645,3.7,3.7,0,0,1-1.4-.847.352.352,0,0,0-.278-.094,1.355,1.355,0,0,0-1,1.259c-.042,1.009-.025,2.023-.034,3.033,0,.181,0,.363,0,.553" transform="translate(4.575 11.403)" stroke="#000" stroke-width="0.3"/>
        <path id="Path_12872" data-name="Path 12872" d="M28.581,30.918H24.47c-.1,0-.19,0-.285-.012a.632.632,0,0,1-.618-.645c-.007-1.379-.033-2.76.006-4.137a2.775,2.775,0,0,1,2.635-2.662.764.764,0,0,1,.727.32,2.152,2.152,0,0,0,3.347.027.87.87,0,0,1,.914-.33,2.724,2.724,0,0,1,2.4,2.822q0,1.915,0,3.83c0,.551-.214.779-.767.782-1.415.006-2.829,0-4.243,0Zm3.724-1.3a.49.49,0,0,0,.019-.08c-.006-1.122,0-2.244-.024-3.364a1.436,1.436,0,0,0-.958-1.394.251.251,0,0,0-.312.055,3.359,3.359,0,0,1-1.177.789,3.412,3.412,0,0,1-3.567-.657c-.267-.23-.354-.242-.669-.07a1.5,1.5,0,0,0-.235.162,1.537,1.537,0,0,0-.517,1.256q0,1.451,0,2.9c0,.129,0,.259,0,.4Z" transform="translate(11.447 11.403)" stroke="#000" stroke-width="0.3"/>
        <path id="Path_12873" data-name="Path 12873" d="M2.926,4.229a5.373,5.373,0,0,1,.221-1.823A3.634,3.634,0,0,1,6.891.016a3.553,3.553,0,0,1,3.164,2.746,5.62,5.62,0,0,1-.181,3.5A3.453,3.453,0,0,1,6.787,8.433,3.427,3.427,0,0,1,3.6,6.931a3.875,3.875,0,0,1-.673-2.3v-.4M4.158,4.2l.052.006a5.141,5.141,0,0,0,.006.66,3.329,3.329,0,0,0,.178.85A2.334,2.334,0,0,0,6.672,7.168,2.3,2.3,0,0,0,8.793,5.474a5.613,5.613,0,0,0,.043-2.3A2.286,2.286,0,0,0,6.678,1.284,2.326,2.326,0,0,0,4.341,2.866,7.471,7.471,0,0,0,4.158,4.2" transform="translate(1.421 0)" stroke="#000" stroke-width="0.3"/>
        <path id="Path_12874" data-name="Path 12874" d="M13.737,19.664a2.976,2.976,0,1,1-2.96,3.032,2.957,2.957,0,0,1,2.96-3.032m1.712,2.975a1.691,1.691,0,1,0-1.687,1.687,1.67,1.67,0,0,0,1.687-1.687" transform="translate(5.238 9.557)" stroke="#000" stroke-width="0.3"/>
        <path id="Path_12875" data-name="Path 12875" d="M27.9,19.667a2.972,2.972,0,1,1-2.945,2.954A2.969,2.969,0,0,1,27.9,19.667m1.722,2.98a1.692,1.692,0,0,0-1.666-1.713,1.7,1.7,0,0,0-.051,3.394,1.689,1.689,0,0,0,1.716-1.681" transform="translate(12.13 9.559)" stroke="#000" stroke-width="0.3"/>
        <path id="Path_12876" data-name="Path 12876" d="M20.808,19.666a2.943,2.943,0,0,1,3.009,2.91,2.971,2.971,0,1,1-5.941.089,2.929,2.929,0,0,1,2.932-3M22.542,22.6a1.652,1.652,0,0,0-1.676-1.669,1.719,1.719,0,0,0-1.719,1.742,1.7,1.7,0,0,0,3.4-.073" transform="translate(8.689 9.559)" stroke="#000" stroke-width="0.3"/>
        <path id="Path_12877" data-name="Path 12877" d="M23.322,8.174h7.562a1.6,1.6,0,0,1,.348.03.62.62,0,0,1,.514.6.65.65,0,0,1-.51.636,1.6,1.6,0,0,1-.348.031q-7.563,0-15.125,0a2.407,2.407,0,0,1-.373-.024.652.652,0,0,1-.529-.618.6.6,0,0,1,.484-.618,1.816,1.816,0,0,1,.391-.039h7.585" transform="translate(7.223 3.973)" stroke="#000" stroke-width="0.3"/>
        <path id="Path_12878" data-name="Path 12878" d="M23.342,9.849h7.365c.155,0,.309,0,.462.016a.617.617,0,0,1,.571.571.645.645,0,0,1-.47.663,1.462,1.462,0,0,1-.369.043H15.708c-.473,0-.739-.162-.822-.5a.613.613,0,0,1,.52-.771,2.832,2.832,0,0,1,.372-.022q3.783,0,7.564,0" transform="translate(7.226 4.787)" stroke="#000" stroke-width="0.3"/>
        <path id="Path_12879" data-name="Path 12879" d="M21.409,6.45h5.605a3.475,3.475,0,0,1,.373.012.62.62,0,0,1,.581.584.611.611,0,0,1-.526.652,2.172,2.172,0,0,1-.392.031q-5.64,0-11.276,0a2.043,2.043,0,0,1-.437-.039.621.621,0,0,1-.477-.608.588.588,0,0,1,.465-.59,2.671,2.671,0,0,1,.566-.043q2.76,0,5.518,0" transform="translate(7.223 3.135)" stroke="#000" stroke-width="0.3"/>
      </g>
    </g>
  </g>
</svg>
