<svg xmlns="http://www.w3.org/2000/svg" xmlns:xlink="http://www.w3.org/1999/xlink" width="65" height="65" viewBox="0 0 65 65">
  <defs>
    <filter id="Ellipse_189" x="-3" y="-1" width="71" height="71" filterUnits="userSpaceOnUse">
      <feOffset dy="3" input="SourceAlpha"/>
      <feGaussianBlur stdDeviation="3" result="blur"/>
      <feFlood flood-color="#e8bbf2" flood-opacity="0.502"/>
      <feComposite operator="in" in2="blur"/>
      <feComposite in="SourceGraphic"/>
    </filter>
    <clipPath id="clip-managelearningpaths">
      <rect width="65" height="65"/>
    </clipPath>
  </defs>
  <g id="managelearningpaths" clip-path="url(#clip-managelearningpaths)">
    <g id="Group_25818" data-name="Group 25818" transform="translate(-1209 -673)">
      <g transform="matrix(1, 0, 0, 1, 1209, 673)" filter="url(#Ellipse_189)">
        <circle id="Ellipse_189-2" data-name="Ellipse 189" cx="26.5" cy="26.5" r="26.5" transform="translate(6 5)" fill="#e8bbf2"/>
      </g>
      <g id="Group_25819" data-name="Group 25819" transform="translate(1226.424 694.008)">
        <g id="Group_25753" data-name="Group 25753">
          <g id="Group_22611" data-name="Group 22611" transform="translate(0 0)">
            <path id="Icon_awesome-map" data-name="Icon awesome-map" d="M0,6.372V22.754a.757.757,0,0,0,1.038.7l7.374-2.972V2.375L.952,4.967A1.514,1.514,0,0,0,0,6.372Z" transform="translate(0 -2.375)" fill="#ffa727" stroke="#000" stroke-width="1.3"/>
          </g>
          <path id="Icon_awesome-map-2" data-name="Icon awesome-map" d="M18.624,20.414l9.082,3.027V5.277L18.624,2.25Z" transform="translate(-8.228 -2.25)" fill="#388de9" stroke="#000" stroke-width="1.3"/>
          <g id="Group_25752" data-name="Group 25752" transform="translate(21.472 0)">
            <path id="Icon_awesome-map-3" data-name="Icon awesome-map" d="M46.006,2.3,38.642,5.277h0V23.441l7.45-2.647a1.513,1.513,0,0,0,.952-1.405V3.008A.757.757,0,0,0,46.006,2.3Z" transform="translate(-38.642 -2.25)" fill="#fe7d97" stroke="#000" stroke-width="1.3"/>
          </g>
        </g>
      </g>
    </g>
  </g>
</svg>
