<svg xmlns="http://www.w3.org/2000/svg" xmlns:xlink="http://www.w3.org/1999/xlink" width="60" height="60" viewBox="0 0 60 60">
  <defs>
    <clipPath id="clip-managecourses">
      <rect width="60" height="60"/>
    </clipPath>
  </defs>
  <g id="managecourses" clip-path="url(#clip-managecourses)">
    <g id="Group_26094" data-name="Group 26094" transform="translate(-10.7 -10.397)">
      <path id="book" d="M53.008,11.53a4.785,4.785,0,0,1,.575,4.249L44.8,45.625a6.806,6.806,0,0,1-2.442,3.542,6.246,6.246,0,0,1-3.91,1.434H8.985a7.666,7.666,0,0,1-4.741-1.763,9.231,9.231,0,0,1-3.176-4.332A6.157,6.157,0,0,1,1,40.322q0-.132.1-.889t.128-1.218a1.888,1.888,0,0,0-.1-.708,1.683,1.683,0,0,1-.1-.643,2.077,2.077,0,0,1,.256-.692,8.173,8.173,0,0,1,.526-.774,8.173,8.173,0,0,0,.526-.774,22.45,22.45,0,0,0,1.436-3.014A18.277,18.277,0,0,0,4.739,28.6a2.644,2.644,0,0,0,.017-.989,3,3,0,0,1-.017-.922,2.8,2.8,0,0,1,.543-.922,5.515,5.515,0,0,0,.543-.757,20.441,20.441,0,0,0,1.342-3.031,13.833,13.833,0,0,0,.8-2.964,4.943,4.943,0,0,0-.08-1.054q-.111-.757.017-.922a2.641,2.641,0,0,1,.7-1q.575-.576.7-.742A13.794,13.794,0,0,0,10.663,12.5a12.682,12.682,0,0,0,.875-3.182,2.814,2.814,0,0,0-.1-.84,2.192,2.192,0,0,1-.063-.874,1.861,1.861,0,0,1,.287-.593q.224-.329.575-.757t.543-.692a7.481,7.481,0,0,0,.526-1q.271-.608.478-1.153T14.3,2.224a5.789,5.789,0,0,1,.623-1.054A3.693,3.693,0,0,1,15.769.4,2.1,2.1,0,0,1,16.918.017,6.422,6.422,0,0,1,18.434.2L18.4.3A8.649,8.649,0,0,1,20.032,0H44.325a4.163,4.163,0,0,1,3.64,1.845,4.823,4.823,0,0,1,.575,4.282L39.792,35.973q-1.149,3.92-2.283,5.056t-4.1,1.138H5.665a1.389,1.389,0,0,0-1.214.494,1.548,1.548,0,0,0-.032,1.417q.766,2.306,4.6,2.306H38.484a3.461,3.461,0,0,0,1.788-.511,2.349,2.349,0,0,0,1.117-1.367l9.577-32.514a5.461,5.461,0,0,0,.159-1.878,4.217,4.217,0,0,1,1.883,1.417Zm-33.968.065a.885.885,0,0,0,.063.742.689.689,0,0,0,.639.314h19.41a1.307,1.307,0,0,0,.814-.314,1.484,1.484,0,0,0,.528-.74l.671-2.108a.885.885,0,0,0-.063-.742.689.689,0,0,0-.639-.314H21.053a1.307,1.307,0,0,0-.814.314,1.484,1.484,0,0,0-.528.74Zm-2.65,8.433a.885.885,0,0,0,.063.742.689.689,0,0,0,.639.313H36.5a1.307,1.307,0,0,0,.814-.313,1.484,1.484,0,0,0,.528-.74l.671-2.108a.885.885,0,0,0-.063-.742.689.689,0,0,0-.639-.313H18.4a1.307,1.307,0,0,0-.814.313,1.484,1.484,0,0,0-.528.74Z" transform="translate(13.03 15.397)" fill="#49b8e7"/>
    </g>
  </g>
</svg>
