<svg xmlns="http://www.w3.org/2000/svg" xmlns:xlink="http://www.w3.org/1999/xlink" width="60" height="60" viewBox="0 0 60 60">
  <defs>
    <clipPath id="clip-path">
      <path id="Path_47955" data-name="Path 47955" d="M2199.776,4193.218h13.49l3.04,5.466,2.161,1.235v1.715l-1.411,1.721h-22.526v-3.039l.882-2.691s1.629-2.247,1.763-2.292,1.322-1.1,1.322-1.1Z" transform="translate(-2194.529 -4193.218)" fill="#efb73d"/>
    </clipPath>
    <clipPath id="clip-manageclassrooms">
      <rect width="60" height="60"/>
    </clipPath>
  </defs>
  <g id="manageclassrooms" clip-path="url(#clip-manageclassrooms)">
    <g id="Group_26099" data-name="Group 26099" transform="translate(-13.363 -12.052)">
      <g id="Group_24731" data-name="Group 24731" transform="translate(15.364 16.052)">
        <path id="Path_47953" data-name="Path 47953" d="M-736.694,37.357V3.4a12.285,12.285,0,0,1,.921-2.19,4.567,4.567,0,0,1,4.111-1.962q17.383.008,34.765,0c3.527,0,7.054-.009,10.581,0a4.689,4.689,0,0,1,4.908,5q0,16.126-.019,32.254a5.569,5.569,0,0,1-.472,2.277,4.505,4.505,0,0,1-4.456,2.677c-5.039-.012-10.076,0-15.115,0h-.674a14.375,14.375,0,0,0,.952,5.049,2.948,2.948,0,0,0,1.88,1.9c.295.078.605.084.9.155a1.1,1.1,0,0,1,.83,1.327c-.122.662-.591.959-1.532.959q-9.934,0-19.867,0a3.142,3.142,0,0,1-.694-.07,1.041,1.041,0,0,1-.851-.936c-.117-.761.364-1.281,1.31-1.362a2.313,2.313,0,0,0,1.728-.984,9.2,9.2,0,0,0,1.422-4.542c.062-.48.069-.966.105-1.5h-15.562c-.341,0-.685,0-1.023-.036a4.508,4.508,0,0,1-2.993-1.567A5.708,5.708,0,0,1-736.694,37.357Zm4.643-5.307h45.99V3.985h-45.99Zm25.3,4.7a2.33,2.33,0,0,0-2.307-2.325,2.329,2.329,0,0,0-2.285,2.35,2.317,2.317,0,0,0,2.333,2.346A2.324,2.324,0,0,0-706.754,36.745Z" transform="translate(736.694 0.756)" fill="#efb73d"/>
        <g id="Mask_Group_10" data-name="Mask Group 10" transform="translate(15.708 42.643)" clip-path="url(#clip-path)">
          <path id="Path_47954" data-name="Path 47954" d="M-736.694,35.469V3.19a11.58,11.58,0,0,1,.891-2.082,4.447,4.447,0,0,1,3.977-1.865q16.817.008,33.632,0c3.412,0,6.824-.009,10.236,0A4.5,4.5,0,0,1-683.21,4q0,15.327-.018,30.655a5.22,5.22,0,0,1-.457,2.164A4.368,4.368,0,0,1-688,39.365c-4.875-.012-9.748,0-14.623,0h-.652a13.45,13.45,0,0,0,.92,4.8,2.827,2.827,0,0,0,1.818,1.809c.285.074.586.08.872.148a1.046,1.046,0,0,1,.8,1.261c-.118.629-.571.912-1.482.912q-9.61,0-19.219,0a3.1,3.1,0,0,1-.672-.067,1,1,0,0,1-.823-.89c-.113-.723.352-1.217,1.267-1.294a2.248,2.248,0,0,0,1.672-.935,8.635,8.635,0,0,0,1.376-4.317c.059-.456.066-.918.1-1.423H-731.69c-.331,0-.663,0-.99-.035a4.387,4.387,0,0,1-2.9-1.49A5.388,5.388,0,0,1-736.694,35.469Zm4.492-5.044h44.491V3.75H-732.2Zm24.473,4.462a2.235,2.235,0,0,0-2.232-2.21,2.232,2.232,0,0,0-2.21,2.233,2.222,2.222,0,0,0,2.257,2.229A2.227,2.227,0,0,0-707.73,34.887Z" transform="translate(721.889 -39.33)" fill="#efb73d"/>
        </g>
      </g>
    </g>
  </g>
</svg>
