<svg xmlns="http://www.w3.org/2000/svg" xmlns:xlink="http://www.w3.org/1999/xlink" width="60" height="60" viewBox="0 0 60 60">
  <defs>
    <clipPath id="clip-path">
      <rect id="Rectangle_6844" data-name="Rectangle 6844" width="49.425" height="49.609" fill="#47bf93"/>
    </clipPath>
    <clipPath id="clip-managefeedback">
      <rect width="60" height="60"/>
    </clipPath>
  </defs>
  <g id="managefeedback" clip-path="url(#clip-managefeedback)">
    <g id="Group_26108" data-name="Group 26108" transform="translate(5.001 5)">
      <path id="Path_94857" data-name="Path 94857" d="M-11763.746,800.108h0l-12.869-2.807-3.17,3.645v26.682l.182,5.212,27.229.766.512-5.14-.512-15.528-5.432-7.582-4.883-3.427h-3.428" transform="translate(11799.384 -785.791)" fill="#c9ebde"/>
      <rect id="Rectangle_7031" data-name="Rectangle 7031" width="25.661" height="6.999" transform="translate(5.101 1.476)" fill="#c9ebde"/>
      <g id="Group_24727" data-name="Group 24727" transform="translate(0)">
        <g id="Group_24726" data-name="Group 24726" clip-path="url(#clip-path)">
          <path id="Path_47958" data-name="Path 47958" d="M0,21.254q0-8.7,0-17.395C.012,1.026.951.03,3.781.022q13.854-.042,27.708,0c2.872.009,3.857,1.014,3.941,3.929.06,2.1.052,4.208.015,6.311a3.284,3.284,0,0,0,1.1,2.572c3.48,3.413,6.884,6.9,10.366,10.314A7.934,7.934,0,0,1,49.425,29.2c-.052,5.592-.007,11.186-.022,16.779-.007,2.545-.976,3.595-3.517,3.606q-12.391.057-24.783,0c-2.531-.012-3.5-1.068-3.527-3.621-.039-3.683.382-3.415-3.554-3.42-3.438,0-6.876.015-10.313-.009C.956,42.513.012,41.556.006,38.8q-.018-8.774,0-17.549m21.339,8.9c0,4.616.015,9.232-.011,13.848-.006,1.148.259,1.844,1.615,1.838q10.54-.05,21.079,0c1.205,0,1.634-.525,1.628-1.675-.023-4.667-.035-9.334.008-14,.013-1.345-.54-1.8-1.844-1.779-2.871.057-5.744.03-8.616.009-2.611-.019-3.478-.9-3.5-3.545-.021-2.821-.063-5.643.014-8.462.041-1.493-.558-2.01-2-1.958-2,.073-4,.011-6,.018-2.262.009-2.374.114-2.378,2.323q-.012,6.693,0,13.386m-3.756-23.1c2.922,0,5.845-.013,8.767.007,1.123.008,1.722-.405,1.716-1.618-.006-1.171-.528-1.677-1.679-1.674q-8.69.016-17.38,0c-1.2,0-1.795.479-1.8,1.736S7.893,7.07,8.972,7.065c2.871-.016,5.742-.006,8.614-.007M42.613,24.575l.171-.376c-2.194-2.18-4.37-4.379-6.594-6.528-.534-.516-.707.016-.71.459q-.018,2.684.025,5.368a.959.959,0,0,0,.907,1.06c2.066.043,4.134.017,6.2.017" transform="translate(0 0)" fill="#47bf93"/>
        </g>
      </g>
    </g>
  </g>
</svg>
