<svg xmlns="http://www.w3.org/2000/svg" xmlns:xlink="http://www.w3.org/1999/xlink" width="60" height="60" viewBox="0 0 60 60">
  <defs>
    <clipPath id="clip-manageprograms">
      <rect width="60" height="60"/>
    </clipPath>
  </defs>
  <g id="manageprograms" clip-path="url(#clip-manageprograms)">
    <g id="Group_25964" data-name="Group 25964" transform="translate(2.001 12)">
      <path id="Path_94853" data-name="Path 94853" d="M-12510.881,788.88h0l-20.869,6.329,20.052,6.8,23.809-5.772-21.117-7.359h0l-2.063-1.1" transform="translate(12537.808 -786.325)" fill="#d9cdf6"/>
      <path id="Path_94855" data-name="Path 94855" d="M-12497.546,799.7v12.5l-16.342,1.92-14.52-1.477V796.5l.344-2.363,14.669,3.692,15.611-3.281" transform="translate(12540.696 -780.829)" fill="#d9cdf6"/>
      <path id="Path_94854" data-name="Path 94854" d="M164.589-773.268c-.673,1.418-1.351,1.684-2.793,1.131a.872.872,0,0,0-.6.09,1.729,1.729,0,0,1-2.024-.243,1.692,1.692,0,0,1-.486-1.916,1.179,1.179,0,0,1,.09-.283,9.873,9.873,0,0,0,1.018-5.654c-.051-1.193-.006-2.391-.006-3.675-2.182.651-4.286,1.266-6.383,1.9-5.58,1.662-11.149,3.352-16.735,4.975a3.888,3.888,0,0,1-2.035-.006c-4.037-1.153-8.045-2.375-12.071-3.579-.113-.034-.232-.062-.424-.119v15.372a77.644,77.644,0,0,0,27.127-.011v-.831c0-3-.011-6,.006-9.007a1.762,1.762,0,0,1,2.284-1.905,1.567,1.567,0,0,1,1.176,1.232,5.364,5.364,0,0,1,.1,1.04c.011,3.455.006,6.9.006,10.357,0,1.617-.435,2.126-2.018,2.437a79.827,79.827,0,0,1-23.825.972c-2.2-.237-4.4-.645-6.592-1-1.453-.232-1.905-.8-1.905-2.284v-17.465c-2.1-.633-4.178-1.255-6.253-1.877-.933-.283-1.871-.543-2.8-.837a1.814,1.814,0,0,1-1.459-1.769,1.781,1.781,0,0,1,1.459-1.764q12.738-3.816,25.487-7.6a2.982,2.982,0,0,1,1.606.045q12.577,3.723,25.131,7.492a1.958,1.958,0,0,1,1.7,2.284c0,2.425.034,4.851-.017,7.282a6.112,6.112,0,0,0,.616,3.036c.243.458.418.95.622,1.425Zm-48.52-12.982c.322.119.475.187.639.238q9.218,2.765,18.437,5.5a2.137,2.137,0,0,0,1.148-.028q8.252-2.442,16.5-4.913c.786-.237,1.56-.48,2.471-.763-.334-.119-.514-.192-.7-.243-5.908-1.764-11.816-3.511-17.713-5.3a3.881,3.881,0,0,0-2.391.011C128.388-789.913,122.316-788.115,116.068-786.25Z" transform="translate(-107.989 795.674)" fill="#835be2"/>
    </g>
  </g>
</svg>
