<svg xmlns="http://www.w3.org/2000/svg" xmlns:xlink="http://www.w3.org/1999/xlink" width="60" height="60" viewBox="0 0 60 60">
  <defs>
    <clipPath id="clip-path">
      <path id="Path_47955" data-name="Path 47955" d="M2199.641,4193.218h13.141l2.962,5.323,2.1,1.2v1.672l-1.375,1.676h-21.945v-2.962l.859-2.619s1.588-2.19,1.718-2.233,1.288-1.073,1.288-1.073Z" transform="translate(-2194.529 -4193.218)" fill="#49b8e7"/>
    </clipPath>
    <clipPath id="clip-manageonlineexam">
      <rect width="60" height="60"/>
    </clipPath>
  </defs>
  <g id="manageonlineexam" clip-path="url(#clip-manageonlineexam)">
    <g id="Group_26063" data-name="Group 26063" transform="translate(-570.184 -586.636)">
      <path id="Path_94859" data-name="Path 94859" d="M-8311.247,2324.787h0l-.344,30.814,16.652,3.605,9.956,4.463,5.494-3.262s11.674-1.373,12.274-1.717,4.978-5.837,4.978-5.837l-.6-26.952-46.266-1.116h-2.488" transform="translate(8887.367 -1731.646)" fill="#c8e9f7"/>
      <g id="Group_26062" data-name="Group 26062" transform="translate(573.183 590.636)">
        <path id="Path_47953" data-name="Path 47953" d="M-736.694,36.373V3.289a11.983,11.983,0,0,1,.9-2.134,4.449,4.449,0,0,1,4-1.911q16.934.008,33.868,0c3.436,0,6.872-.009,10.308,0a4.568,4.568,0,0,1,4.781,4.87q0,15.71-.019,31.421a5.426,5.426,0,0,1-.46,2.218,4.389,4.389,0,0,1-4.341,2.607c-4.909-.012-9.816,0-14.725,0h-.657a14.011,14.011,0,0,0,.927,4.919,2.872,2.872,0,0,0,1.831,1.855c.287.076.59.082.878.151a1.072,1.072,0,0,1,.808,1.293c-.119.645-.575.935-1.492.935q-9.677,0-19.353,0a3.062,3.062,0,0,1-.676-.068,1.014,1.014,0,0,1-.829-.912c-.114-.741.354-1.248,1.276-1.327a2.253,2.253,0,0,0,1.684-.958,8.963,8.963,0,0,0,1.386-4.425c.059-.467.067-.941.1-1.458h-15.16c-.332,0-.667,0-1-.036a4.393,4.393,0,0,1-2.916-1.527A5.563,5.563,0,0,1-736.694,36.373Zm4.523-5.17h44.8V3.863h-44.8Zm24.644,4.574a2.27,2.27,0,0,0-2.247-2.265A2.269,2.269,0,0,0-712,35.8a2.257,2.257,0,0,0,2.273,2.285A2.263,2.263,0,0,0-707.527,35.777Z" transform="translate(736.694 0.756)" fill="#49b8e7"/>
        <g id="Mask_Group_10" data-name="Mask Group 10" transform="translate(15.303 41.542)" clip-path="url(#clip-path)">
          <path id="Path_47954" data-name="Path 47954" d="M-736.694,34.534V3.088a11.286,11.286,0,0,1,.868-2.028,4.332,4.332,0,0,1,3.874-1.816q16.382.008,32.764,0c3.324,0,6.648-.009,9.972,0a4.379,4.379,0,0,1,4.625,4.629q0,14.931-.018,29.864a5.084,5.084,0,0,1-.445,2.108,4.255,4.255,0,0,1-4.2,2.478c-4.749-.011-9.5,0-14.245,0h-.635a13.1,13.1,0,0,0,.9,4.675,2.752,2.752,0,0,0,1.771,1.763c.278.073.571.078.85.144a1.018,1.018,0,0,1,.782,1.228c-.115.613-.556.888-1.443.888q-9.362,0-18.723,0a3.012,3.012,0,0,1-.654-.065.97.97,0,0,1-.8-.867c-.11-.7.343-1.186,1.235-1.261a2.188,2.188,0,0,0,1.629-.911,8.412,8.412,0,0,0,1.341-4.206c.058-.444.065-.894.1-1.386h-14.665c-.322,0-.646,0-.965-.034a4.274,4.274,0,0,1-2.821-1.451A5.247,5.247,0,0,1-736.694,34.534Zm4.376-4.914h43.342V3.634h-43.342Zm23.84,4.347a2.177,2.177,0,0,0-2.174-2.153,2.175,2.175,0,0,0-2.153,2.175,2.165,2.165,0,0,0,2.2,2.172A2.169,2.169,0,0,0-708.478,33.967Z" transform="translate(722.271 -38.295)" fill="#49b8e7"/>
        </g>
      </g>
    </g>
  </g>
</svg>
