<svg xmlns="http://www.w3.org/2000/svg" xmlns:xlink="http://www.w3.org/1999/xlink" width="60" height="60" viewBox="0 0 60 60">
  <defs>
    <clipPath id="clip-path">
      <rect id="Rectangle_6843" data-name="Rectangle 6843" width="57.803" height="46.312" fill="#835be2"/>
    </clipPath>
    <clipPath id="clip-manageusers">
      <rect width="60" height="60"/>
    </clipPath>
  </defs>
  <g id="manageusers" clip-path="url(#clip-manageusers)">
    <g id="Group_26109" data-name="Group 26109" transform="translate(-7.681 -6.397)">
      <g id="Group_26043" data-name="Group 26043" transform="translate(8.682 13.397)">
        <g id="Group_24709" data-name="Group 24709" transform="translate(0 0)" clip-path="url(#clip-path)">
          <path id="Path_47947" data-name="Path 47947" d="M20.227,113.536q-8.624,0-17.249,0a2.9,2.9,0,0,1-2.471-1.2A2.353,2.353,0,0,1,0,110.931a13.349,13.349,0,0,1,.444-3.652,27.909,27.909,0,0,1,.941-2.919A14.734,14.734,0,0,1,3.9,100.285,14.361,14.361,0,0,1,8.14,96.819a17.071,17.071,0,0,1,6.575-1.968,89.556,89.556,0,0,1,9.595-.107,16.262,16.262,0,0,1,7.435,1.776,15.686,15.686,0,0,1,7.838,9.223,18.725,18.725,0,0,1,.844,4.944,2.787,2.787,0,0,1-2.878,2.845c-2.862.008-5.725,0-8.588,0H20.227" transform="translate(0 -67.225)" fill="#835be2"/>
          <path id="Path_47948" data-name="Path 47948" d="M29.952,11.586a11.529,11.529,0,0,1,23.056-.321,11.53,11.53,0,1,1-23.056.321" transform="translate(-21.269 0)" fill="#835be2"/>
          <path id="Path_47949" data-name="Path 47949" d="M137.992,39.743c0-.929-.011-1.859,0-2.789a1.939,1.939,0,0,1,1.314-1.817,2.043,2.043,0,0,1,2.813,1.747c.028.409.019.82.021,1.231.007,1.461.018,2.922.009,4.383,0,.326.125.406.427.4,1.546-.006,3.091,0,4.637.017a7.206,7.206,0,0,1,1.257.126,1.9,1.9,0,0,1,1.624,1.867,2,2,0,0,1-1.18,2.024,4.107,4.107,0,0,1-1.366.283c-1.653.035-3.308.025-4.962.01-.348,0-.453.1-.452.448q.013,2.7-.016,5.4a2.059,2.059,0,0,1-4.106.2,13.661,13.661,0,0,1-.045-1.625c-.005-1.388-.011-2.776,0-4.165,0-.312-.189-.255-.357-.255-1.545,0-3.091.008-4.637,0a7.752,7.752,0,0,1-1.081-.074,2.186,2.186,0,0,1-1.921-2.148,2.153,2.153,0,0,1,2-2.031,13.1,13.1,0,0,1,1.336-.069c1.413-.008,2.826-.016,4.238.005.363.005.445-.116.437-.455-.021-.905-.007-1.811-.007-2.716h.01" transform="translate(-92.298 -24.836)" fill="#835be2"/>
        </g>
      </g>
    </g>
  </g>
</svg>
