<svg xmlns="http://www.w3.org/2000/svg" xmlns:xlink="http://www.w3.org/1999/xlink" width="60" height="60" viewBox="0 0 60 60">
  <defs>
    <clipPath id="clip-manageforum">
      <rect width="60" height="60"/>
    </clipPath>
  </defs>
  <g id="manageforum" clip-path="url(#clip-manageforum)">
    <g id="Group_26107" data-name="Group 26107" transform="translate(-922.727 -580.615)">
      <path id="Path_94860" data-name="Path 94860" d="M-7954.724,2356.772h0l8.028-3.845,3.979-.337,11.535-.4,8.7-4.385,4.654-7.151,1.08-7.69-4.048-6.544-10.727-5.936h-12.615l-10.32,2.7-4.655,5.6-1.889,4.183.539,6.746,4.318,7.083,2.5,2.563-2.5,3.845s-3.171,1.552-2.5,2.091a8.916,8.916,0,0,0,1.889,1.011" transform="translate(8887.053 -1731.836)" fill="#fcf1d8"/>
      <g id="Group_26067" data-name="Group 26067" transform="translate(925.727 587.615)">
        <path id="Path_47956" data-name="Path 47956" d="M19.778,38.292c.008.035.006.058.017.069.055.053.112.1.17.153a21.537,21.537,0,0,0,5.2,3.234A27.473,27.473,0,0,0,37.4,44.061a28.306,28.306,0,0,0,4.92-.581.634.634,0,0,1,.489.094c1.391.843,2.805,1.646,4.232,2.426a14.546,14.546,0,0,0,5.251,1.913,4.014,4.014,0,0,0,2.119-.188,1.2,1.2,0,0,0,.732-.823,1.731,1.731,0,0,0-.621-1.869,32.609,32.609,0,0,1-2.43-2.313,3.933,3.933,0,0,1-1.033-2.489.46.46,0,0,1,.221-.475,18.9,18.9,0,0,0,3.457-3,14.143,14.143,0,0,0,3.757-8.2,12.955,12.955,0,0,0-1.424-7.274,17.324,17.324,0,0,0-5.673-6.285c-.09-.063-.168-.159-.3-.147-.009.021-.025.039-.023.055a1.927,1.927,0,0,0,.037.2,15.361,15.361,0,0,1-.98,10.328,19.608,19.608,0,0,1-6.179,7.461A29.623,29.623,0,0,1,28.829,38.55a31.24,31.24,0,0,1-5.041.129c-1.127-.065-2.249-.168-3.366-.326a1.774,1.774,0,0,0-.644-.062" transform="translate(-3.904 -2.479)" fill="#efb73d"/>
        <g id="Group_24723" data-name="Group 24723" transform="translate(0 0)">
          <g id="Group_24724" data-name="Group 24724">
            <path id="Path_47957" data-name="Path 47957" d="M44,15.914a12.245,12.245,0,0,0-1.393-5.108,17,17,0,0,0-5.833-6.489A25.579,25.579,0,0,0,23.239.029a27.986,27.986,0,0,0-5.774.327A24.761,24.761,0,0,0,7.013,4.471,16.723,16.723,0,0,0,1.142,11.36a12.757,12.757,0,0,0-.906,7.728,14.549,14.549,0,0,0,4.05,7.469,19.424,19.424,0,0,0,2.951,2.47c.117.081.247.149.237.326a3.811,3.811,0,0,1-.834,2.378,18.486,18.486,0,0,1-1.68,1.708,11.642,11.642,0,0,0-1.287,1.212,1.482,1.482,0,0,0,.72,2.4,4.61,4.61,0,0,0,1.869.09A11.756,11.756,0,0,0,9.954,36c1.951-.933,3.8-2.045,5.662-3.147a.811.811,0,0,1,.62-.1,28.885,28.885,0,0,0,7.973.5,27.113,27.113,0,0,0,7.477-1.612,20.784,20.784,0,0,0,8.97-6.13A14.142,14.142,0,0,0,44,15.914" transform="translate(0 0.001)" fill="none" stroke="#fae2b1" stroke-width="3"/>
          </g>
        </g>
      </g>
    </g>
  </g>
</svg>
